<svg viewBox="0 0 24 24" xmlns="http://www.w3.org/2000/svg"><path d="m21.145 18.156h-18.29c-.552 0-1 .448-1 1v1.25c0 .552.448 1 1 1h18.29c.552 0 1-.448 1-1v-1.25c0-.552-.448-1-1-1z" fill="#b8bdc5"/><g fill="#727780"><path d="m5.915 11.216h-2.2v6.94h2.2z"/><path d="m10.745 11.216h-2.2v6.94h2.2z"/><path d="m15.575 11.216h-2.2v6.94h2.2z"/><path d="m20.405 11.216h-2.2v6.94h2.2z"/></g><path d="m21.128 6.37-8.145-4.599c-.61-.345-1.356-.345-1.967 0l-8.144 4.599c-.628.355-1.017 1.02-1.017 1.742v2.104c0 .552.448 1 1 1h18.29c.552 0 1-.448 1-1v-2.104c0-.721-.389-1.387-1.017-1.742zm-9.128 2.482c-.973 0-1.762-.789-1.762-1.762s.789-1.762 1.762-1.762 1.762.789 1.762 1.762-.789 1.762-1.762 1.762z" fill="#b8bdc5" fill-rule="evenodd"/></svg>